<?xml version="1.0" encoding="utf-8"?>
<!-- Generator: Adobe Illustrator 22.0.1, SVG Export Plug-In . SVG Version: 6.00 Build 0)  -->
<svg version="1.1" id="Layer_1" xmlns="http://www.w3.org/2000/svg" xmlns:xlink="http://www.w3.org/1999/xlink" x="0px" y="0px"
	 viewBox="0 0 90 66.1" style="enable-background:new 0 0 90 66.1;" xml:space="preserve">
<g>
	<path d="M82.9,17c-9.2-0.3-12,5.9-14.6,12.3c-13.9-2.9-32.9-3-46.6,0.2C19.1,23.1,16.3,16.7,7.1,17C7.9,8.2,12.7,1.2,22,0.3
		c6.7-0.6,14.9,0,23,0c8,0,16.2-0.5,22.8,0C77.4,1.1,82.1,8.5,82.9,17z"/>
	<path d="M19.5,35.2c14.2-4.8,36.6-5.1,50.7,0c2.9-4,2.4-8.4,5.9-11.8c6.2-5.9,17.4,1.4,12.8,9.8c-1.1,2-2.9,2.9-5,4.1
		c-1.4,4.1-0.1,9.3-1.8,13.5c-1.1,2.7-4.9,4.5-8.7,4.8c-8.3,0.6-18.5,0-28.3,0c-10.1,0-19.5,0.6-28.3,0c-4.1-0.3-8.1-2.2-9.1-4.8
		c-1.5-3.9-0.6-9.3-1.6-13.3C1.7,35.5-1.4,31,0.6,26.1c0.8-2,3.5-4.5,6.6-4.8C16.2,20.4,16.2,29.9,19.5,35.2z"/>
	<path d="M17.6,66.1c-1.6,0-3.2,0-4.8,0c-3.3-0.6-2.9-4.8-2.8-8.7c2.4,1.7,6.3,1.8,10.5,1.8C20.7,62.7,20.3,65.6,17.6,66.1z"/>
	<path d="M77.2,66.1c-1.6,0-3.2,0-4.8,0c-2.7-0.4-3.3-3.8-2.7-6.9c4.1,0.2,8.2-0.4,10.3-1.6C80.2,61.5,80.4,65.5,77.2,66.1z"/>
</g>
</svg>
