<svg id="Layer_1" data-name="Layer 1" xmlns="http://www.w3.org/2000/svg" viewBox="0 0 14.67 12"><defs><style>.cls-1{fill:#3f8a91;}</style></defs><title>logo</title><path class="cls-1" d="M11.69,4,10,6A4,4,0,0,0,7,4.5,3.29,3.29,0,0,0,3.72,7.92,3.31,3.31,0,0,0,7,11.38,4.42,4.42,0,0,0,10,10l1.75,1.85A7.13,7.13,0,0,1,6.85,14,6,6,0,1,1,7,2,6.83,6.83,0,0,1,11.69,4Z" transform="translate(-0.67 -2)"/><path class="cls-1" d="M15.33,12.59a1.4,1.4,0,1,1-2.8,0,1.4,1.4,0,1,1,2.8,0Z" transform="translate(-0.67 -2)"/></svg>