<svg xmlns="http://www.w3.org/2000/svg" xmlns:xlink="http://www.w3.org/1999/xlink" version="1.1" x="0px" y="0px" viewBox="0 0 100 125" style="enable-background:new 0 0 100 100;" xml:space="preserve"><g><g><path d="M58.9,77.3L58.9,77.3c0.6-1,1-2,1.4-3.1c5.5-12.1,24.4-12,25.4-12c0.2,0,0.4,0.1,0.6,0.1c4.6,0,8.8-3.5,9.3-8.1    c0.5-4.6-2.6-8.9-7.1-9.8c-2.5-0.6-15.3-0.6-27.2,5v-0.1c-1.5,1.2-3.4,1.9-5.5,1.9c-2.4,0-4.6-1-6.2-2.5c-0.6,4.1-4.1,6.9-9,6.9    c-3.2,0-6-1.7-7.6-4.2c-1.6,2.4-4.4,4-7.5,4c-5,0-9.1-4.1-9.1-9.1c-1.6,1.4-3.7,2.4-6,2.4c-2.3,0-4.4-0.9-6.1-2.4v21.9    c0,10.3,8.3,18.6,18.6,18.6h19.8C49.7,86.8,55.8,82.9,58.9,77.3z"/><path d="M16.4,39.6v-9.7c0-3.3-2.7-6-6-6c-3.3,0-6.1,2.7-6.1,6v6.5v3.3c0,3.3,2.7,6,6.1,6C13.8,45.6,16.4,42.9,16.4,39.6z"/><path d="M19.5,39.6v6.7c0,3.3,2.7,6,6,6c3.3,0,6-2.7,6-6V19.7v-0.2c0-3.3-2.7-6.1-6-6.1c-3.3,0-6,2.7-6,6.1v10.3V39.6z"/><path d="M34.7,19.7v26.6v0.2c0,3.3,2.7,6,6,6c3.3,0,6.1-1.8,6.1-5.2v-0.9V42V26.6v-6.9c0-3.3-2.7-6.1-6.1-6.1    C37.4,13.6,34.7,16.4,34.7,19.7z"/><path d="M49.8,42c0,3.3,2.7,6,6.1,6c3.3,0,6-2.7,6-6V26.6c0-3.3-2.7-6-6-6c-3.4,0-6.1,2.7-6.1,6V42z"/></g></g><text x="0" y="115" fill="#000000" font-size="5px" font-weight="bold" font-family="'Helvetica Neue', Helvetica, Arial-Unicode, Arial, Sans-serif">Created by Bonnie Duffley</text><text x="0" y="120" fill="#000000" font-size="5px" font-weight="bold" font-family="'Helvetica Neue', Helvetica, Arial-Unicode, Arial, Sans-serif">from the Noun Project</text></svg>