<?xml version="1.0" encoding="utf-8"?>
<!-- Generator: Adobe Illustrator 22.0.1, SVG Export Plug-In . SVG Version: 6.00 Build 0)  -->
<svg version="1.1" id="Layer_1" xmlns="http://www.w3.org/2000/svg" xmlns:xlink="http://www.w3.org/1999/xlink" x="0px" y="0px"
	 viewBox="0 0 73.4 91.4" style="enable-background:new 0 0 73.4 91.4;" xml:space="preserve">
<g>
	<g>
		<path d="M63.9,36.8L63.9,36.8c-1-0.6-2-1-3.1-1.4c-12.1-5.5-12-24.4-12-25.4c0-0.2,0.1-0.4,0.1-0.6c0-4.6-3.5-8.8-8.1-9.3
			S31.9,2.7,31,7.2c-0.6,2.5-0.6,15.3,5,27.2h-0.1c1.2,1.5,1.9,3.4,1.9,5.5c0,2.4-1,4.6-2.5,6.2c4.1,0.6,6.9,4.1,6.9,9
			c0,3.2-1.7,6-4.2,7.6c2.4,1.6,4,4.4,4,7.5c0,5-4.1,9.1-9.1,9.1c1.4,1.6,2.4,3.7,2.4,6c0,2.3-0.9,4.4-2.4,6.1h21.9
			c10.3,0,18.6-8.3,18.6-18.6V53C73.4,46,69.5,39.9,63.9,36.8z"/>
		<path d="M26.2,79.3h-9.7c-3.3,0-6,2.7-6,6c0,3.3,2.7,6.1,6,6.1H23h3.3c3.3,0,6-2.7,6-6.1C32.2,81.9,29.5,79.3,26.2,79.3z"/>
		<path d="M26.2,76.2h6.7c3.3,0,6-2.7,6-6c0-3.3-2.7-6-6-6H6.3H6.1c-3.3,0-6.1,2.7-6.1,6c0,3.3,2.7,6,6.1,6h10.3H26.2z"/>
		<path d="M6.3,61h26.6h0.2c3.3,0,6-2.7,6-6s-1.8-6.1-5.2-6.1H33h-4.4H13.2H6.3c-3.3,0-6.1,2.7-6.1,6.1C0.2,58.3,3,61,6.3,61z"/>
		<path d="M28.6,45.9c3.3,0,6-2.7,6-6.1c0-3.3-2.7-6-6-6H13.2c-3.3,0-6,2.7-6,6c0,3.4,2.7,6.1,6,6.1H28.6z"/>
	</g>
</g>
</svg>
