<?xml version="1.0" encoding="utf-8"?>
<!-- Generator: Adobe Illustrator 22.0.1, SVG Export Plug-In . SVG Version: 6.00 Build 0)  -->
<svg version="1.1" id="Layer_1" xmlns="http://www.w3.org/2000/svg" xmlns:xlink="http://www.w3.org/1999/xlink" x="0px" y="0px"
	 viewBox="0 0 73.4 91.4" style="enable-background:new 0 0 73.4 91.4;" xml:space="preserve">
<g>
	
		<image style="overflow:visible;opacity:0.5;" width="72" height="87" xlink:href="112536A8F98054D1.png"  transform="matrix(1 0 0 1 3.6453 5.0453)">
	</image>
	<g>
		<g>
			<g>
				<path d="M61,37.7L61,37.7c-0.9-0.5-1.8-0.9-2.8-1.3c-10.8-4.9-10.7-21.8-10.7-22.7c0-0.2,0.1-0.4,0.1-0.5c0-4.1-3.1-7.9-7.2-8.3
					s-8,2.3-8.8,6.3c-0.5,2.2-0.5,13.7,4.5,24.3H36c1.1,1.3,1.7,3,1.7,4.9c0,2.1-0.9,4.1-2.2,5.5c3.7,0.5,6.2,3.7,6.2,8
					c0,2.9-1.5,5.4-3.8,6.8c2.1,1.4,3.6,3.9,3.6,6.7c0,4.5-3.7,8.1-8.1,8.1c1.3,1.4,2.1,3.3,2.1,5.4c0,2.1-0.8,3.9-2.1,5.5h19.6
					c9.2,0,16.6-7.4,16.6-16.6V52.2C69.5,46,66,40.5,61,37.7z"/>
				<path d="M27.3,75.7h-8.7c-2.9,0-5.4,2.4-5.4,5.4c0,2.9,2.4,5.5,5.4,5.5h5.8h2.9c2.9,0,5.4-2.4,5.4-5.5
					C32.7,78.1,30.3,75.7,27.3,75.7z"/>
				<path d="M27.3,73h6c2.9,0,5.4-2.4,5.4-5.4c0-2.9-2.4-5.4-5.4-5.4H9.5H9.4c-2.9,0-5.5,2.4-5.5,5.4c0,2.9,2.4,5.4,5.5,5.4h9.2
					H27.3z"/>
				<path d="M9.5,59.4h23.8h0.2c2.9,0,5.4-2.4,5.4-5.4s-1.6-5.5-4.6-5.5h-0.8h-3.9H15.7H9.5c-2.9,0-5.5,2.4-5.5,5.5
					C4.1,57,6.6,59.4,9.5,59.4z"/>
				<path d="M29.5,45.9c2.9,0,5.4-2.4,5.4-5.5c0-2.9-2.4-5.4-5.4-5.4H15.7c-2.9,0-5.4,2.4-5.4,5.4c0,3,2.4,5.5,5.4,5.5H29.5z"/>
			</g>
		</g>
	</g>
</g>
</svg>
