<?xml version="1.0" encoding="utf-8"?>
<!-- Generator: Adobe Illustrator 22.0.1, SVG Export Plug-In . SVG Version: 6.00 Build 0)  -->
<svg version="1.1" id="Layer_1" xmlns="http://www.w3.org/2000/svg" xmlns:xlink="http://www.w3.org/1999/xlink" x="0px" y="0px"
	 viewBox="0 0 90 66.1" style="enable-background:new 0 0 90 66.1;" xml:space="preserve">
<g>
	
		<image style="overflow:visible;opacity:0.75;" width="86" height="65" xlink:href="231649A8988DB2BC.png"  transform="matrix(1 0 0 1 5.3653 3.4653)">
	</image>
	<g>
		<g>
			<path d="M78.3,19c-8.1-0.3-10.5,5.2-12.8,10.8c-12.2-2.5-28.9-2.6-40.9,0.2c-2.3-5.6-4.7-11.2-12.8-11
				c0.7-7.7,4.9-13.9,13.1-14.7c5.9-0.5,13.1,0,20.2,0c7,0,14.2-0.4,20,0C73.5,5,77.6,11.5,78.3,19z"/>
			<path d="M22.6,34.9c12.5-4.2,32.1-4.5,44.5,0c2.5-3.5,2.1-7.4,5.2-10.4c5.4-5.2,15.3,1.2,11.2,8.6c-1,1.8-2.5,2.5-4.4,3.6
				c-1.2,3.6-0.1,8.2-1.6,11.9c-1,2.4-4.3,4-7.6,4.2c-7.3,0.5-16.2,0-24.9,0c-8.9,0-17.1,0.5-24.9,0c-3.6-0.3-7.1-1.9-8-4.2
				c-1.3-3.4-0.5-8.2-1.4-11.7C7,35.2,4.2,31.3,6,26.9c0.7-1.8,3.1-4,5.8-4.2C19.7,21.9,19.7,30.3,22.6,34.9z"/>
			<path d="M20.9,62.1c-1.4,0-2.8,0-4.2,0c-2.9-0.5-2.5-4.2-2.5-7.6c2.1,1.5,5.5,1.6,9.2,1.6C23.7,59.1,23.3,61.6,20.9,62.1z"/>
			<path d="M73.3,62.1c-1.4,0-2.8,0-4.2,0c-2.4-0.4-2.9-3.3-2.4-6.1c3.6,0.2,7.2-0.4,9-1.4C75.9,58,76.1,61.6,73.3,62.1z"/>
		</g>
	</g>
</g>
</svg>
